<?xml version="1.0" standalone="no"?>
<!DOCTYPE svg PUBLIC "-//W3C//DTD SVG 20010904//EN"
 "http://www.w3.org/TR/2001/REC-SVG-20010904/DTD/svg10.dtd">
<svg version="1.0" xmlns="http://www.w3.org/2000/svg"
 width="1536.000000pt" height="1024.000000pt" viewBox="0 0 1536.000000 1024.000000"
 preserveAspectRatio="xMidYMid meet">

<g transform="translate(0.000000,1024.000000) scale(0.100000,-0.100000)"
fill="#000000" stroke="none">
<path d="M4525 6567 c-115 -38 -192 -106 -271 -236 -79 -132 -547 -1084 -634
-1291 -56 -133 -70 -180 -80 -270 -26 -239 106 -435 335 -495 75 -19 221 -19
305 1 132 31 291 126 403 242 l49 50 66 -66 c154 -152 355 -242 538 -242 148
0 259 40 356 129 162 148 177 353 48 655 -97 227 -582 1203 -652 1311 -57 88
-132 159 -206 193 -68 31 -192 40 -257 19z m245 -53 c70 -32 119 -79 182 -174
51 -76 586 -1145 651 -1300 97 -231 111 -381 49 -511 -58 -121 -179 -205 -330
-230 -194 -32 -426 60 -618 245 l-74 71 -83 -80 c-98 -96 -179 -152 -282 -194
-256 -107 -541 -31 -643 171 -62 123 -65 250 -10 407 48 138 163 381 435 924
235 469 259 512 315 573 62 66 126 106 195 124 56 14 151 2 213 -26z"/>
<path d="M4549 6340 c-37 -19 -77 -64 -116 -130 -76 -127 -629 -1269 -657
-1355 -56 -179 -1 -321 143 -368 161 -52 342 14 538 197 l57 53 -29 39 c-94
123 -182 291 -210 399 -47 183 11 376 138 463 71 49 134 65 240 60 116 -5 181
-33 256 -113 64 -68 88 -120 103 -224 23 -162 -38 -339 -182 -530 l-71 -94 48
-50 c93 -95 236 -182 342 -207 70 -17 175 -8 226 17 84 43 125 104 132 198 9
108 -25 192 -376 914 -296 611 -351 705 -428 737 -45 19 -111 17 -154 -6z
m134 -24 c44 -18 75 -57 144 -179 74 -131 549 -1113 597 -1233 61 -154 61
-256 0 -324 -117 -129 -352 -85 -560 104 l-58 53 51 68 c129 172 183 304 191
466 4 90 1 117 -17 177 -27 91 -74 157 -147 209 -85 61 -175 87 -278 80 -99
-7 -156 -26 -221 -75 -103 -78 -155 -180 -163 -323 -8 -151 48 -310 178 -508
71 -109 75 -95 -54 -193 -96 -72 -154 -102 -240 -124 -117 -29 -236 10 -289
95 -18 30 -22 50 -21 121 0 74 5 96 36 170 95 227 620 1284 671 1351 55 72
114 93 180 65z"/>
<path d="M4577 5516 c-143 -52 -170 -241 -65 -451 42 -84 120 -197 128 -188
20 22 110 164 133 208 67 134 76 279 21 357 -49 69 -142 101 -217 74z m140
-47 c18 -12 43 -39 54 -62 18 -34 21 -54 17 -128 -4 -78 -9 -97 -45 -171 -23
-46 -56 -103 -73 -127 l-32 -43 -35 48 c-75 105 -122 232 -123 329 0 54 37
124 79 152 44 30 111 31 158 2z"/>
<path d="M7491 6097 c-73 -23 -132 -123 -116 -198 31 -149 227 -200 332 -87
60 65 58 174 -5 242 -50 53 -129 69 -211 43z m150 -43 c64 -33 94 -122 62
-183 -49 -95 -175 -114 -251 -38 -75 75 -42 197 63 235 34 13 87 7 126 -14z"/>
<path d="M8477 6092 c-16 -17 -17 -80 -17 -695 0 -606 2 -677 16 -692 13 -13
37 -15 138 -13 117 3 121 4 124 26 2 12 4 22 6 22 1 0 26 -11 54 -25 75 -36
144 -48 237 -42 196 13 358 129 426 304 27 70 36 210 20 298 -26 141 -129 279
-255 340 -151 74 -294 70 -458 -13 -5 -2 -8 104 -8 236 0 205 -2 243 -16 256
-12 13 -39 16 -133 16 -102 0 -120 -3 -134 -18z m248 -187 c4 -93 5 -218 4
-278 -2 -59 -1 -107 2 -107 3 0 16 12 30 26 13 15 49 38 79 52 49 23 68 26
165 26 91 0 120 -4 168 -23 156 -62 264 -215 284 -403 12 -115 -39 -264 -120
-354 -145 -160 -443 -185 -591 -49 l-35 32 -3 -51 -3 -51 -102 0 -103 0 0 671
c0 369 3 674 7 677 3 4 52 6 109 4 l102 -2 7 -170z"/>
<path d="M8878 5420 c-41 -12 -94 -47 -123 -81 -24 -29 -25 -36 -25 -165 l0
-135 54 -54 c107 -107 249 -114 356 -18 59 53 85 114 85 198 0 85 -26 145 -85
198 -67 61 -174 84 -262 57z m147 -31 c127 -34 194 -165 154 -300 -49 -162
-263 -202 -382 -70 l-37 41 0 115 0 115 33 36 c20 22 53 43 87 54 64 22 90 24
145 9z"/>
<path d="M10550 6091 c-6 -13 -10 -248 -10 -695 0 -600 2 -676 16 -690 22 -23
245 -23 264 -1 7 8 9 15 4 15 -4 0 -3 5 3 11 8 8 23 4 54 -12 92 -47 225 -62
329 -38 170 39 311 175 355 344 44 171 0 360 -112 486 -136 151 -381 201 -555
113 l-48 -24 0 238 c0 219 -2 240 -18 255 -15 14 -41 17 -145 17 -115 0 -127
-2 -137 -19z m262 -28 c2 -10 3 -137 1 -283 l-4 -265 28 27 c50 48 139 81 228
86 145 8 273 -43 360 -142 204 -232 142 -602 -123 -733 l-76 -38 -130 0 c-149
0 -191 13 -265 80 l-41 37 0 -55 0 -55 -105 1 -105 2 0 678 0 677 114 0 c100
0 114 -2 118 -17z"/>
<path d="M10949 5416 c-44 -15 -102 -59 -124 -92 -14 -21 -16 -48 -13 -159 l3
-134 45 -46 c128 -130 336 -107 417 48 37 70 39 190 6 253 -31 57 -89 111
-142 129 -54 18 -143 19 -192 1z m167 -31 c133 -39 194 -200 128 -334 -36 -72
-86 -104 -169 -109 -81 -5 -143 17 -190 69 -33 37 -35 43 -37 117 -2 115 3
175 15 191 20 24 86 61 125 70 55 13 73 13 128 -4z"/>
<path d="M6628 5654 c-195 -47 -347 -211 -380 -409 -17 -99 1 -219 47 -311
110 -225 416 -331 637 -222 l69 35 12 -26 c12 -25 15 -26 128 -29 88 -2 119 1
127 11 8 10 12 147 12 468 1 420 0 454 -16 466 -12 9 -54 13 -124 13 -91 0
-109 -3 -123 -18 -10 -10 -17 -24 -17 -30 0 -6 -19 0 -43 13 -90 50 -220 66
-329 39z m231 -38 c53 -15 115 -49 159 -89 l22 -20 0 51 0 52 105 0 105 0 0
-446 0 -447 -46 7 c-26 3 -73 6 -105 6 l-59 0 0 45 c0 25 -3 45 -6 45 -3 0
-22 -13 -42 -30 -159 -127 -419 -109 -577 41 -98 92 -140 205 -133 358 3 86 8
105 39 171 20 41 55 96 78 122 47 53 147 113 219 133 64 18 175 18 241 1z"/>
<path d="M6685 5419 c-52 -15 -109 -73 -140 -140 -24 -54 -27 -71 -23 -133 7
-105 49 -174 133 -219 58 -31 173 -30 235 2 106 55 131 99 137 241 4 88 1 111
-14 140 -22 42 -91 96 -141 110 -44 12 -145 12 -187 -1z m213 -51 c23 -11 54
-35 67 -52 23 -30 25 -42 25 -130 0 -59 -5 -109 -14 -130 -19 -45 -77 -91
-142 -111 -140 -44 -274 59 -274 211 0 118 57 207 148 233 50 13 138 4 190
-21z"/>
<path d="M9960 5659 c-24 -5 -68 -20 -98 -35 -29 -14 -54 -24 -55 -23 -24 45
-20 44 -136 47 -65 1 -119 -2 -131 -8 -20 -10 -20 -21 -20 -465 0 -399 2 -455
16 -469 12 -13 39 -16 128 -16 97 0 115 3 129 18 15 16 17 52 17 300 l0 281
30 35 c80 91 218 90 288 -2 l27 -35 3 -286 c2 -252 5 -287 19 -298 26 -20 247
-18 267 3 23 23 24 571 1 659 -54 206 -269 336 -485 294z m247 -63 c109 -49
189 -158 213 -288 6 -30 9 -170 8 -317 l-3 -263 -112 -1 -112 -2 -3 281 -3
281 -28 41 c-81 122 -243 134 -348 26 l-34 -35 -5 -297 -5 -296 -110 -1 -110
0 0 440 0 440 108 3 107 3 0 -53 0 -52 38 36 c69 67 136 89 257 84 62 -2 94
-9 142 -30z"/>
<path d="M8187 5645 c-21 -8 -51 -23 -66 -35 -36 -25 -41 -25 -41 0 0 31 -32
40 -145 40 -58 0 -115 -5 -126 -10 -18 -10 -19 -26 -19 -470 0 -449 0 -460 20
-470 12 -6 68 -9 137 -8 114 3 118 4 130 28 9 18 13 96 13 287 l0 262 30 35
c46 52 104 76 182 76 97 0 100 6 96 147 -2 88 -6 116 -18 123 -22 14 -149 11
-193 -5z m173 -34 c5 -11 10 -58 10 -105 l0 -86 -45 0 c-118 0 -208 -46 -252
-129 -22 -43 -23 -51 -23 -309 l0 -265 -82 6 c-46 4 -98 7 -115 7 l-33 0 0
440 0 440 115 0 115 0 0 -57 0 -58 25 32 c48 60 140 101 232 102 32 1 45 -4
53 -18z"/>
<path d="M7408 5639 c-17 -9 -18 -42 -18 -469 0 -444 1 -460 19 -470 28 -15
254 -13 269 2 9 9 12 127 12 470 0 442 -1 458 -19 468 -25 13 -240 13 -263 -1z
m247 -474 l0 -440 -117 -3 -118 -3 0 446 0 446 118 -3 117 -3 0 -440z"/>
</g>
</svg>
